<svg width="13" height="13" viewBox="0 0 13 13" fill="none" xmlns="http://www.w3.org/2000/svg">
<path fill-rule="evenodd" clip-rule="evenodd" d="M6.10025 11.9893C6.10025 11.9893 2.16667 8.67642 2.16667 5.41667C2.16667 4.2674 2.62321 3.1652 3.43587 2.35254C4.24853 1.53988 5.35073 1.08334 6.5 1.08334C7.64927 1.08334 8.75147 1.53988 9.56413 2.35254C10.3768 3.1652 10.8333 4.2674 10.8333 5.41667C10.8333 8.67642 6.89975 11.9893 6.89975 11.9893C6.68092 12.1908 6.32071 12.1886 6.10025 11.9893ZM6.5 7.3125C6.74897 7.3125 6.99549 7.26347 7.22551 7.16819C7.45552 7.07292 7.66451 6.93327 7.84056 6.75723C8.0166 6.58118 8.15625 6.37219 8.25152 6.14217C8.3468 5.91216 8.39583 5.66563 8.39583 5.41667C8.39583 5.1677 8.3468 4.92118 8.25152 4.69117C8.15625 4.46115 8.0166 4.25216 7.84056 4.07611C7.66451 3.90007 7.45552 3.76042 7.22551 3.66515C6.99549 3.56987 6.74897 3.52084 6.5 3.52084C5.9972 3.52084 5.51498 3.72058 5.15944 4.07611C4.80391 4.43165 4.60417 4.91386 4.60417 5.41667C4.60417 5.91948 4.80391 6.40169 5.15944 6.75723C5.51498 7.11276 5.9972 7.3125 6.5 7.3125Z" fill="#EE684A"/>
</svg>
