<svg width="27" height="27" viewBox="0 0 27 27" fill="none" xmlns="http://www.w3.org/2000/svg">
<path fill-rule="evenodd" clip-rule="evenodd" d="M9.98719 14.9481L7.96155 12.2548L9.44856 11.7558C9.71843 11.6655 10.0147 11.7074 10.2482 11.8693L11.5392 12.7604L14.6443 11.3934L11.4004 7.28348L14.0418 6.72168L18.3079 10.0627L22.857 8.24955C23.9706 7.80562 25.1999 8.54807 25.3244 9.73996V9.73996C25.4081 10.5309 24.9642 11.2844 24.2306 11.595L16.0762 15.0473C15.867 15.1354 15.6445 15.1839 15.4176 15.1894L10.7318 15.3062C10.4399 15.3161 10.1623 15.1817 9.98719 14.9481Z" stroke="#7D848D" stroke-width="1.4" stroke-linecap="round" stroke-linejoin="round"/>
<path d="M22.0684 8.59215C20.4767 5.46482 17.2362 3.31787 13.4878 3.31787C8.16757 3.31787 3.85522 7.63269 3.85522 12.9565C3.85522 18.2793 8.16757 22.5952 13.4878 22.5952C18.808 22.5952 23.1203 18.2804 23.1203 12.9565C23.1203 12.669 23.1016 12.387 23.0774 12.1061" stroke="#7D848D" stroke-width="1.4" stroke-linecap="round" stroke-linejoin="round"/>
<path d="M3.87721 13.6031C1.82402 15.109 0.712618 16.7801 1.20829 17.9477C1.91104 19.6882 5.87641 19.7267 10.0654 18.0336" stroke="#7D848D" stroke-width="1.4" stroke-linecap="round" stroke-linejoin="round"/>
</svg>
