<svg width="13" height="13" viewBox="0 0 13 13" fill="none" xmlns="http://www.w3.org/2000/svg">
<path d="M3.78029 1.66508C4.2597 1.5834 4.75133 1.61035 5.21894 1.74394C5.68655 1.87752 6.11822 2.11435 6.48213 2.43696L6.50217 2.45483L6.52058 2.43858C6.8679 2.13379 7.27622 1.90656 7.7183 1.77205C8.16039 1.63755 8.62607 1.59887 9.08429 1.65858L9.21754 1.67808C9.79512 1.77781 10.335 2.03188 10.78 2.41338C11.2249 2.79488 11.5585 3.28962 11.7452 3.8452C11.9319 4.40079 11.965 4.99653 11.8408 5.56935C11.7166 6.14217 11.4398 6.67074 11.0397 7.09909L10.9422 7.19929L10.9162 7.2215L6.88079 11.2185C6.78767 11.3106 6.66429 11.3659 6.53352 11.3741C6.40275 11.3823 6.27345 11.3427 6.16958 11.2629L6.11867 11.2185L2.05996 7.19821C1.62999 6.77986 1.32421 6.25066 1.17648 5.66923C1.02874 5.0878 1.04482 4.47682 1.22293 3.90396C1.40104 3.33111 1.73423 2.81873 2.1856 2.42357C2.63698 2.0284 3.18891 1.76589 3.78029 1.66508Z" fill="#EE684A"/>
</svg>
