<svg width="13" height="13" viewBox="0 0 13 13" fill="none" xmlns="http://www.w3.org/2000/svg">
<path d="M10.5625 6.80983L6.5 10.8333L2.4375 6.80983C2.16954 6.54908 1.95847 6.23567 1.81759 5.88934C1.6767 5.54301 1.60905 5.17126 1.6189 4.7975C1.62874 4.42374 1.71587 4.05607 1.87479 3.71764C2.03372 3.3792 2.26099 3.07734 2.5423 2.83106C2.82362 2.58478 3.15288 2.39941 3.50936 2.28663C3.86583 2.17385 4.24179 2.1361 4.61357 2.17576C4.98535 2.21542 5.3449 2.33163 5.66956 2.51707C5.99422 2.70251 6.27697 2.95316 6.5 3.25325C6.724 2.95534 7.00707 2.70688 7.33151 2.52341C7.65595 2.33994 8.01477 2.22541 8.3855 2.18699C8.75624 2.14857 9.13092 2.18708 9.48609 2.30013C9.84125 2.41317 10.1693 2.5983 10.4496 2.84394C10.7299 3.08958 10.9565 3.39044 11.1152 3.72769C11.2739 4.06493 11.3613 4.43131 11.3719 4.80388C11.3825 5.17645 11.3161 5.5472 11.1768 5.89292C11.0375 6.23865 10.8284 6.5519 10.5625 6.81308" stroke="#EE684A" stroke-width="1.08333" stroke-linecap="round" stroke-linejoin="round"/>
</svg>
