<svg width="13" height="13" viewBox="0 0 13 13" fill="none" xmlns="http://www.w3.org/2000/svg">
<path fill-rule="evenodd" clip-rule="evenodd" d="M2.16667 2.70834C2.16667 2.27736 2.33787 1.86403 2.64262 1.55929C2.94736 1.25454 3.36069 1.08334 3.79167 1.08334H9.20833C9.63931 1.08334 10.0526 1.25454 10.3574 1.55929C10.6621 1.86403 10.8333 2.27736 10.8333 2.70834V11.3902C10.8333 12.051 10.0858 12.4356 9.5485 12.0515L6.5 9.87404L3.4515 12.0515C2.91362 12.4361 2.16667 12.0515 2.16667 11.3907V2.70834ZM3.79167 2.16667C3.64801 2.16667 3.51023 2.22374 3.40865 2.32532C3.30707 2.4269 3.25 2.56468 3.25 2.70834V10.8642L6.02767 8.88009C6.16548 8.78162 6.33062 8.72869 6.5 8.72869C6.66938 8.72869 6.83452 8.78162 6.97233 8.88009L9.75 10.8642V2.70834C9.75 2.56468 9.69293 2.4269 9.59135 2.32532C9.48977 2.22374 9.35199 2.16667 9.20833 2.16667H3.79167Z" fill="#EE684A"/>
</svg>
